<?xml version="1.0" standalone="no"?>
<!DOCTYPE svg PUBLIC "-//W3C//DTD SVG 20010904//EN"
 "http://www.w3.org/TR/2001/REC-SVG-20010904/DTD/svg10.dtd">
<svg version="1.0" xmlns="http://www.w3.org/2000/svg"
 width="200.000000pt" height="181.000000pt" viewBox="0 0 200.000000 181.000000"
 preserveAspectRatio="xMidYMid meet">

<g transform="translate(0.000000,181.000000) scale(0.100000,-0.100000)"
fill="#000000" stroke="none">
<path d="M1258 1740 c-94 -28 -179 -123 -228 -254 l-11 -30 -23 50 c-49 106
-126 163 -230 171 -80 7 -146 -20 -176 -70 -22 -37 -43 -47 -103 -47 -47 0
-54 -16 -39 -88 21 -99 82 -152 177 -152 l45 0 0 -84 c0 -106 -21 -219 -56
-296 -22 -49 -32 -61 -60 -70 -74 -25 -96 -99 -45 -151 l29 -29 151 0 c144 0
151 1 151 20 0 19 -7 20 -143 20 -133 0 -145 2 -163 21 -17 19 -17 23 -3 47
22 40 76 43 105 6 14 -16 28 -25 37 -21 21 8 11 43 -19 66 l-23 18 25 62 c34
84 54 195 54 299 0 130 -1 132 -69 132 -66 0 -112 24 -136 71 -16 30 -16 32 4
50 12 11 21 24 21 29 0 4 15 13 34 20 20 6 42 25 57 48 16 25 37 42 65 51 37
13 44 12 80 -5 32 -16 40 -25 42 -53 2 -22 -3 -43 -16 -60 -66 -90 -71 -166
-11 -196 45 -24 77 -19 114 18 40 40 53 93 34 140 l-13 32 -8 -45 c-16 -95
-53 -135 -103 -112 -36 16 -32 52 11 123 27 42 36 69 36 98 l-1 41 26 -17 c32
-21 99 -123 108 -164 5 -21 -6 -65 -44 -168 -105 -289 -125 -396 -87 -474 49
-100 198 -129 283 -54 89 79 85 165 -24 475 -26 72 -50 132 -54 132 -4 0 -10
-12 -13 -27 -4 -19 4 -55 24 -108 45 -118 90 -283 90 -329 0 -76 -67 -146
-138 -146 -69 0 -123 42 -143 113 -17 58 36 243 152 534 67 170 94 216 152
269 55 49 76 57 51 19 -26 -39 -12 -55 46 -55 64 0 83 -10 118 -62 64 -98 64
-98 47 -125 -20 -30 -72 -53 -120 -53 -28 0 -35 -4 -35 -20 0 -11 3 -20 8 -20
4 0 7 -46 8 -103 1 -117 28 -231 73 -312 l29 -51 -24 -27 c-28 -33 -30 -45 -9
-53 9 -4 23 4 36 20 22 28 56 34 90 16 22 -12 26 -64 7 -77 -7 -4 -80 -10
-163 -13 -124 -4 -150 -8 -150 -20 0 -13 25 -15 158 -18 156 -2 158 -2 182 22
18 18 25 36 25 64 0 49 -23 78 -75 94 -36 12 -44 21 -78 88 -43 87 -74 246
-63 321 6 43 9 45 56 62 59 21 99 68 107 126 5 37 3 41 -36 65 -22 15 -41 32
-41 39 0 23 -54 66 -90 73 -62 10 -63 11 -39 43 18 25 20 33 9 46 -14 17 -14
17 -52 5z"/>
<path d="M650 1545 c-16 -19 -14 -21 28 -30 34 -7 44 9 20 33 -16 16 -33 15
-48 -3z"/>
<path d="M1302 1538 c-21 -21 -13 -36 18 -33 38 3 46 11 30 30 -15 18 -32 19
-48 3z"/>
<path d="M783 593 c-9 -3 -13 -37 -13 -119 l0 -114 70 0 70 0 0 30 c0 28 -3
30 -35 30 -19 0 -35 5 -35 10 0 6 14 10 30 10 25 0 30 4 30 25 0 21 -5 25 -31
25 -26 0 -30 3 -27 23 2 17 11 23 36 25 17 2 32 6 32 10 0 4 3 17 6 30 6 21 4
22 -57 21 -35 0 -70 -3 -76 -6z"/>
<path d="M1022 591 c-26 -5 -53 -18 -70 -34 -22 -23 -26 -35 -26 -83 0 -51 3
-59 32 -85 25 -23 42 -29 77 -29 43 0 45 1 45 30 0 31 -3 33 -53 45 -25 5 -28
9 -25 43 3 34 6 37 36 40 30 3 32 6 32 43 0 21 -1 38 -2 38 -2 -1 -22 -5 -46
-8z"/>
<path d="M1164 593 c-53 -11 -85 -87 -70 -167 8 -43 45 -66 106 -66 39 0 40 1
40 35 0 29 -4 35 -21 35 -33 0 -59 19 -59 44 0 28 29 56 59 56 19 0 22 5 19
33 -3 33 -22 41 -74 30z"/>
<path d="M574 538 c3 -29 6 -81 6 -115 l0 -63 36 0 c35 0 36 1 32 34 -5 40 4
39 22 -4 11 -26 17 -30 52 -30 l39 0 -39 58 -39 57 33 50 c19 27 34 53 34 57
0 5 -16 8 -35 8 -30 0 -37 -5 -54 -37 l-20 -38 -1 38 c0 36 -1 37 -36 37 l-37
0 7 -52z"/>
<path d="M1291 571 c-49 -49 -48 -157 1 -194 23 -17 30 -18 63 -7 29 9 41 22
56 54 25 56 25 120 -1 146 -27 27 -93 27 -119 1z m69 -77 c0 -29 -16 -64 -30
-64 -14 0 -12 74 2 88 16 16 28 5 28 -24z"/>
<path d="M277 303 c-3 -5 -6 -57 -8 -118 l-4 -110 43 -3 c41 -3 42 -2 42 27 0
23 5 31 18 31 31 0 61 30 73 72 15 56 1 84 -48 97 -44 13 -110 14 -116 4z m88
-83 c0 -13 -6 -25 -12 -27 -9 -3 -13 6 -13 27 0 21 4 30 13 28 6 -3 12 -15 12
-28z"/>
<path d="M483 303 c-9 -3 -13 -37 -13 -119 l0 -114 70 0 70 0 0 30 c0 27 -3
30 -30 30 -16 0 -30 5 -30 10 0 6 11 10 24 10 22 0 36 16 36 41 0 5 -13 9 -30
9 -25 0 -30 4 -30 24 0 21 6 25 33 28 27 2 33 8 35 31 l3 27 -63 -1 c-35 0
-69 -3 -75 -6z"/>
<path d="M640 276 c0 -29 4 -36 20 -36 18 0 20 -7 20 -86 l0 -85 43 3 42 3 3
87 c3 84 4 88 25 85 17 -2 23 4 25 26 3 25 1 27 -35 27 -21 0 -62 3 -90 6
l-53 7 0 -37z"/>
<path d="M972 298 c-45 -22 -40 -88 9 -113 16 -9 29 -22 29 -30 0 -13 -4 -13
-26 2 -25 16 -27 16 -40 -2 -20 -27 -17 -41 12 -64 37 -29 94 -28 122 2 33 35
28 70 -15 106 -38 31 -41 51 -4 32 18 -10 22 -8 34 21 14 32 13 33 -12 45 -32
15 -79 15 -109 1z"/>
<path d="M1136 279 c-3 -17 -6 -71 -6 -119 0 -72 3 -89 16 -94 28 -11 53 3 56
32 4 38 42 38 46 0 3 -24 8 -28 37 -28 19 0 36 3 38 8 3 4 7 57 8 117 l4 110
-37 3 -38 3 0 -43 c0 -62 -9 -88 -31 -88 -17 0 -19 8 -19 65 l0 65 -34 0 c-30
0 -34 -4 -40 -31z"/>
<path d="M1566 249 c-3 -34 -6 -88 -6 -120 l0 -59 46 0 c46 0 46 0 41 30 -5
22 -3 30 8 30 27 0 63 22 74 47 13 28 14 82 3 101 -11 17 -67 32 -118 32 l-41
0 -7 -61z m99 -9 c10 -16 -5 -50 -21 -50 -9 0 -14 11 -14 30 0 30 21 42 35 20z"/>
<path d="M1390 275 c-28 -30 -39 -110 -20 -156 22 -53 79 -60 127 -17 29 27
48 114 33 154 -14 37 -26 44 -76 44 -30 0 -46 -6 -64 -25z m77 -51 c9 -23 -11
-79 -27 -79 -19 0 -24 33 -11 68 12 30 29 35 38 11z"/>
</g>
</svg>
